<svg version="1.1" viewBox="0.0 0.0 271.0839895013123 100.0" fill="none" stroke="none" stroke-linecap="square" stroke-miterlimit="10" xmlns:xlink="http://www.w3.org/1999/xlink" xmlns="http://www.w3.org/2000/svg"><clipPath id="p.0"><path d="m0 0l271.08398 0l0 100.0l-271.08398 0l0 -100.0z" clip-rule="nonzero"/></clipPath><g clip-path="url(#p.0)"><path fill="#000000" fill-opacity="0.0" d="m0 0l271.08398 0l0 100.0l-271.08398 0z" fill-rule="evenodd"/><path fill="#000000" fill-opacity="0.0" d="m305.8568 -23.96003l-307.08664 0l0 125.25984l307.08664 0z" fill-rule="evenodd"/><path fill="#ffffff" d="m78.55143 21.324966q-1.15625 0.125 -3.328125 0.46875q-2.171875 0.328125 -3.921875 1.625q-1.53125 1.125 -2.1875 3.859375q-0.640625 2.71875 -0.640625 8.0l0 42.25l-7.421871 0l-36.828125 -45.703125l0 27.75q0 5.171875 0.6875 7.859375q0.6875 2.6875 2.234375 3.9375q1.125 0.90625 3.578125 1.625q2.468752 0.703125 3.921877 0.953125l0 3.25l-25.421875 0l0 -3.25q1.625 -0.125 3.734375 -0.59375q2.109375 -0.484375 3.515624 -1.484375q1.625 -1.21875 2.234375 -3.65625q0.609375 -2.4375 0.609375 -8.1875l0 -27.984375q0 -2.09375 -0.65625 -3.9375q-0.640625 -1.859375 -2.015625 -3.1875q-1.453124 -1.421875 -3.359374 -2.234375q-1.890625 -0.8125 -4.3125 -1.265625l0 -3.34375l22.25 0l32.328125 40.0l0 -22.375q0 -5.328125 -0.703125 -7.921875q-0.703125 -2.609375 -2.25 -3.859375q-1.203125 -0.96875 -3.578125 -1.65625q-2.375 -0.6875 -3.84375 -0.9375l0 -3.25l25.374996 0l0 3.25z" fill-rule="nonzero"/><path fill="#ffffff" d="m81.31269 86.32497l0 -41.671875l8.921875 0l0 2.640625l-6.140625 0l0 36.390625l6.140625 0l0 2.640625l-8.921875 0z" fill-rule="nonzero"/><path fill="#ffffff" d="m138.96109 77.19997l-21.187508 0l0 -3.09375q2.109375 -0.234375 3.578125 -0.46875q1.484375 -0.234375 1.484375 -1.21875q0 -0.421875 -0.46875 -1.3125q-0.46875 -0.890625 -0.9375 -1.640625q-1.171875 -1.828125 -3.21875 -4.890625q-2.03125 -3.078125 -4.984375 -7.34375q-2.4375 3.046875 -4.5 5.9375q-2.0625 2.875 -4.3125 6.109375q-0.328125 0.46875 -0.6875 1.171875q-0.34375 0.703125 -0.34375 1.125q0 1.03125 1.328125 1.71875q1.34375 0.671875 4.015625 0.90625l0 3.0l-17.109375 0l0 -2.90625q3.1875 -0.9375 5.125 -2.265625q1.953125 -1.34375 3.59375 -3.3125q1.453125 -1.875 4.046875 -5.15625q2.609375 -3.28125 6.734375 -8.90625q-2.390625 -3.421875 -5.84375 -8.359375q-3.4375 -4.953125 -5.6875 -8.234375q-1.21875 -1.78125 -2.796875 -2.875q-1.5625 -1.109375 -4.421875 -1.109375l0 -3.09375l20.109375 0l0 3.09375q-1.5 0 -2.953125 0.1875q-1.453125 0.1875 -1.453125 0.84375q0 0.421875 0.28125 0.9375q0.28125 0.515625 0.703125 1.125q1.03125 1.59375 3.203125 4.921875q2.1875 3.328125 4.71875 7.03125q1.640625 -2.25 3.8125 -5.25q2.1875 -3.0 4.015625 -5.71875q0.1875 -0.328125 0.375 -0.8125q0.1875 -0.5 0.1875 -0.96875q0 -0.984375 -1.625 -1.5625q-1.609375 -0.59375 -3.0625 -0.828125l0 -3.0l17.062508 0l0 2.90625q-3.609375 0.9375 -5.625 2.234375q-2.015625 1.28125 -3.421875 2.96875q-1.5468826 1.921875 -3.6875076 4.734375q-2.125 2.8125 -5.96875 7.875q4.265625 6.0 6.9375 9.84375q2.6718826 3.84375 5.3906326 7.921875q1.359375 2.0625 3.015625 3.265625q1.671875 1.1875 4.578125 1.375l0 3.09375zm52.921875 -17.625q0 7.875 -6.796875 13.546875q-6.796875 5.671875 -17.859375 5.671875q-10.359375 0 -16.59375 -5.203125q-6.234375 -5.203125 -6.234375 -13.40625q0 -6.046875 3.671875 -10.09375q3.6875 -4.0625 10.90625 -6.875q-5.953125 -3.328125 -8.90625 -7.3125q-2.953125 -3.984375 -2.953125 -9.0q0 -7.640625 6.484375 -12.796876q6.5 -5.15625 15.546875 -5.15625q9.046875 0 14.640625 4.875q5.609375 4.875001 5.609375 12.234376q0 4.734375 -3.09375 8.984375q-3.09375 4.234375 -9.09375 6.953125q7.78125 3.328125 11.21875 7.359375q3.453125 4.03125 3.453125 10.21875zm-11.34375 -34.03125q0 -5.71875 -3.40625 -9.296875q-3.390625 -3.593751 -8.6875 -3.593751q-5.296875 0 -8.671875 3.453126q-3.375 3.4375 -3.375 8.546875q0 4.921875 3.84375 8.34375q3.84375 3.421875 13.6875 7.3125q3.515625 -2.25 5.0625 -5.953125q1.546875 -3.703125 1.546875 -8.8125zm1.96875 36.234375q0 -2.953125 -1.265625 -5.171875q-1.265625 -2.234375 -3.65625 -4.0625q-2.296875 -1.78125 -6.40625 -3.71875q-4.09375 -1.953125 -8.875 -3.96875q-4.5 2.4375 -6.609375 6.21875q-2.109375 3.765625 -2.109375 8.59375q0 6.890625 4.046875 11.140625q4.0625 4.234375 10.8125 4.234375q6.46875 0 10.265625 -3.75q3.796875 -3.75 3.796875 -9.515625zm64.640625 -6.1875q0 4.875 -1.765625 9.140625q-1.75 4.265625 -4.703125 7.265625q-3.421875 3.421875 -7.578125 5.0625q-4.140625 1.640625 -8.640625 1.640625q-5.203125 0 -9.421875 -1.921875q-4.21875 -1.921875 -7.171875 -5.4375q-3.0 -3.5625 -4.640625 -8.71875q-1.640625 -5.15625 -1.640625 -11.578125q0 -16.734375 9.953125 -28.21875q9.96875 -11.484376 26.703125 -13.781251l0.84375 4.21875l-4.21875 0.75q-10.171875 3.281251 -15.734375 10.218751q-5.546875 6.9375 -7.1875 16.828125q4.03125 -3.515625 7.96875 -4.96875q3.9375 -1.453125 8.296875 -1.453125q7.828125 0 13.375 6.0q5.5625 6.0 5.5625 14.953125zm-10.171875 1.265625q0 -7.59375 -3.5 -12.1875q-3.484375 -4.59375 -9.34375 -4.59375q-3.515625 0 -6.546875 1.3125q-3.015625 1.3125 -5.828125 4.40625q-0.046875 0.5625 -0.140625 2.609375q-0.09375 2.03125 -0.09375 3.203125q0 10.96875 3.578125 17.1875q3.59375 6.203125 9.453125 6.203125q5.578125 0 9.0 -4.84375q3.421875 -4.859375 3.421875 -13.296875z" fill-rule="nonzero"/><path fill="#ffffff" d="m251.89859 86.32497l0 -2.640625l6.140625 0l0 -36.390625l-6.140625 0l0 -2.640625l8.9375 0l0 41.671875l-8.9375 0z" fill-rule="nonzero"/></g></svg>